<!DOCTYPE svg PUBLIC "-//W3C//DTD SVG 20010904//EN" "http://www.w3.org/TR/2001/REC-SVG-20010904/DTD/svg10.dtd">
<svg version="1.0" xmlns="http://www.w3.org/2000/svg" width="1200px" height="1200px" viewBox="0 0 12000 12000" preserveAspectRatio="xMidYMid meet">
<g id="layer101" fill="#020100" stroke="none">
<path d="M1560 11990 c0 -5 -25 -10 -55 -10 -30 0 -55 -4 -55 -10 0 -5 -20 -10 -44 -10 -25 0 -48 -4 -51 -10 -3 -5 -17 -10 -29 -10 -13 0 -29 -7 -36 -15 -7 -8 -25 -15 -41 -15 -15 0 -31 -4 -34 -10 -3 -5 -18 -10 -33 -11 -15 0 -40 -9 -57 -19 -30 -19 -66 -37 -130 -65 -19 -9 -37 -20 -40 -25 -3 -6 -15 -10 -26 -10 -10 0 -19 -4 -19 -10 0 -5 -8 -10 -18 -10 -10 0 -29 -11 -42 -25 -13 -14 -29 -25 -35 -25 -6 0 -26 -16 -45 -35 -19 -19 -39 -35 -46 -35 -7 0 -39 -27 -72 -60 -34 -33 -67 -60 -74 -60 -17 0 -88 -71 -88 -89 0 -7 -27 -39 -60 -73 -33 -33 -60 -65 -60 -72 0 -7 -16 -27 -35 -46 -19 -19 -35 -39 -35 -45 0 -6 -11 -22 -25 -35 -14 -13 -25 -32 -25 -42 0 -10 -4 -18 -10 -18 -5 0 -10 -6 -10 -13 0 -18 -28 -75 -41 -82 -5 -4 -9 -15 -9 -26 0 -10 -4 -19 -10 -19 -5 0 -10 -6 -10 -13 0 -18 -28 -75 -41 -82 -5 -4 -9 -19 -9 -35 0 -16 -4 -32 -10 -35 -5 -3 -10 -19 -10 -34 0 -16 -7 -34 -16 -42 -8 -7 -13 -21 -11 -30 3 -10 -1 -23 -9 -30 -8 -7 -14 -30 -14 -55 0 -24 -4 -44 -10 -44 -5 0 -10 -25 -10 -55 0 -30 -4 -55 -10 -55 -7 0 -10 -1487 -10 -4440 0 -2953 3 -4440 10 -4440 6 0 10 -25 10 -55 0 -30 5 -55 10 -55 6 0 10 -20 10 -44 0 -25 6 -48 14 -55 8 -7 12 -20 9 -30 -2 -9 3 -23 11 -30 9 -8 16 -26 16 -42 0 -15 4 -31 10 -34 6 -3 10 -19 10 -35 0 -16 4 -31 9 -35 13 -7 41 -64 41 -82 0 -7 5 -13 10 -13 6 0 10 -9 10 -19 0 -11 4 -22 9 -26 13 -7 41 -64 41 -82 0 -7 5 -13 10 -13 6 0 10 -8 10 -18 0 -10 11 -29 25 -42 14 -13 25 -29 25 -35 0 -6 16 -26 35 -45 19 -19 35 -39 35 -46 0 -7 27 -39 60 -72 33 -34 60 -67 60 -74 0 -18 71 -88 89 -88 7 0 40 -27 73 -60 34 -33 66 -60 73 -60 6 0 26 -16 45 -35 19 -19 39 -35 45 -35 6 0 22 -11 35 -25 13 -14 32 -25 42 -25 10 0 18 -4 18 -10 0 -5 9 -10 19 -10 11 0 23 -4 26 -10 3 -5 21 -16 40 -25 64 -28 100 -46 130 -65 17 -10 42 -19 57 -19 15 -1 30 -5 33 -11 3 -5 19 -10 34 -10 16 0 34 -7 41 -15 7 -8 23 -15 36 -15 12 0 26 -4 29 -10 3 -5 26 -10 51 -10 24 0 44 -4 44 -10 0 -5 25 -10 55 -10 30 0 55 -4 55 -10 0 -7 1487 -10 4440 -10 2953 0 4440 3 4440 10 0 6 25 10 55 10 30 0 55 5 55 10 0 6 20 10 44 10 25 0 48 5 51 10 3 6 17 10 29 10 13 0 29 7 36 15 7 8 25 15 41 15 15 0 31 5 34 10 3 6 18 10 33 11 15 0 41 9 57 19 30 19 66 37 130 65 19 9 37 20 40 25 3 6 15 10 26 10 10 0 19 5 19 10 0 6 8 10 18 10 10 0 29 11 42 25 13 14 29 25 35 25 6 0 26 16 45 35 19 19 39 35 46 35 7 0 39 27 72 60 34 33 67 60 74 60 17 0 88 71 88 89 0 7 27 39 60 73 33 33 60 65 60 72 0 7 16 27 35 46 19 19 35 39 35 45 0 6 11 22 25 35 14 13 25 32 25 42 0 10 5 18 10 18 6 0 10 6 10 13 0 18 28 75 41 82 5 4 9 15 9 26 0 10 5 19 10 19 6 0 10 7 10 15 0 9 11 33 25 55 14 22 25 51 25 64 0 14 5 28 10 31 6 3 10 19 10 34 0 16 7 34 16 42 8 7 13 21 11 30 -3 10 1 23 9 30 8 7 14 30 14 55 0 24 5 44 10 44 6 0 10 25 10 55 0 30 5 55 10 55 7 0 10 1487 10 4440 0 2953 -3 4440 -10 4440 -5 0 -10 25 -10 55 0 30 -4 55 -10 55 -5 0 -10 20 -10 44 0 25 -6 48 -14 55 -8 7 -12 20 -9 30 2 9 -3 23 -11 30 -9 8 -16 26 -16 42 0 15 -4 31 -10 34 -6 3 -10 17 -10 31 0 13 -11 42 -25 64 -14 22 -25 46 -25 55 0 8 -4 15 -10 15 -5 0 -10 9 -10 19 0 11 -4 22 -9 26 -13 7 -41 64 -41 82 0 7 -4 13 -10 13 -5 0 -10 8 -10 18 0 10 -11 29 -25 42 -14 13 -25 29 -25 35 0 6 -16 26 -35 45 -19 19 -35 39 -35 46 0 7 -27 39 -60 72 -33 34 -60 67 -60 74 0 17 -71 88 -89 88 -7 0 -39 27 -73 60 -33 33 -65 60 -72 60 -7 0 -27 16 -46 35 -19 19 -39 35 -45 35 -6 0 -22 11 -35 25 -13 14 -32 25 -42 25 -10 0 -18 5 -18 10 0 6 -9 10 -19 10 -11 0 -23 4 -26 10 -3 5 -21 16 -40 25 -64 28 -100 46 -130 65 -16 10 -42 19 -57 19 -15 1 -30 6 -33 11 -3 6 -19 10 -34 10 -16 0 -34 7 -41 15 -7 8 -23 15 -36 15 -12 0 -26 5 -29 10 -3 6 -26 10 -51 10 -24 0 -44 5 -44 10 0 6 -25 10 -55 10 -30 0 -55 5 -55 10 0 7 -1487 10 -4440 10 -2953 0 -4440 -3 -4440 -10z"/>
</g>
<g id="layer102" fill="#c96927" stroke="none">
</g>
<g id="layer103" fill="#fa8231" stroke="none">
<path d="M1560 11990 c0 -5 -25 -10 -55 -10 -30 0 -55 -4 -55 -10 0 -5 -20 -10 -44 -10 -25 0 -48 -4 -51 -10 -3 -5 -17 -10 -29 -10 -13 0 -29 -7 -36 -15 -7 -8 -25 -15 -41 -15 -15 0 -31 -4 -34 -10 -3 -5 -18 -10 -33 -11 -15 0 -40 -9 -57 -19 -30 -19 -66 -37 -130 -65 -19 -9 -37 -20 -40 -25 -3 -6 -15 -10 -26 -10 -10 0 -19 -4 -19 -10 0 -5 -8 -10 -18 -10 -10 0 -29 -11 -42 -25 -13 -14 -29 -25 -35 -25 -6 0 -26 -16 -45 -35 -19 -19 -39 -35 -46 -35 -7 0 -39 -27 -72 -60 -34 -33 -67 -60 -74 -60 -17 0 -88 -71 -88 -89 0 -7 -27 -39 -60 -73 -33 -33 -60 -65 -60 -72 0 -7 -16 -27 -35 -46 -19 -19 -35 -39 -35 -45 0 -6 -11 -22 -25 -35 -14 -13 -25 -32 -25 -42 0 -10 -4 -18 -10 -18 -5 0 -10 -6 -10 -13 0 -18 -28 -75 -41 -82 -5 -4 -9 -15 -9 -26 0 -10 -4 -19 -10 -19 -5 0 -10 -6 -10 -13 0 -18 -28 -75 -41 -82 -5 -4 -9 -19 -9 -35 0 -16 -4 -32 -10 -35 -5 -3 -10 -19 -10 -34 0 -16 -7 -34 -16 -42 -8 -7 -13 -21 -11 -30 3 -10 -1 -23 -9 -30 -8 -7 -14 -30 -14 -55 0 -24 -4 -44 -10 -44 -5 0 -10 -25 -10 -55 0 -30 -4 -55 -10 -55 -7 0 -10 -1487 -10 -4440 0 -2953 3 -4440 10 -4440 6 0 10 -25 10 -55 0 -30 5 -55 10 -55 6 0 10 -20 10 -44 0 -25 6 -48 14 -55 8 -7 12 -20 9 -30 -2 -9 3 -23 11 -30 9 -8 16 -26 16 -42 0 -15 4 -31 10 -34 6 -3 10 -19 10 -35 0 -16 4 -31 9 -35 13 -7 41 -64 41 -82 0 -7 5 -13 10 -13 6 0 10 -9 10 -19 0 -11 4 -22 9 -26 13 -7 41 -64 41 -82 0 -7 5 -13 10 -13 6 0 10 -8 10 -18 0 -10 11 -29 25 -42 14 -13 25 -29 25 -35 0 -6 16 -26 35 -45 19 -19 35 -39 35 -46 0 -7 27 -39 60 -72 33 -34 60 -67 60 -74 0 -18 71 -88 89 -88 7 0 40 -27 73 -60 34 -33 66 -60 73 -60 6 0 26 -16 45 -35 19 -19 39 -35 45 -35 6 0 22 -11 35 -25 13 -14 32 -25 42 -25 10 0 18 -4 18 -10 0 -5 9 -10 19 -10 11 0 23 -4 26 -10 3 -5 21 -16 40 -25 64 -28 100 -46 130 -65 17 -10 42 -19 57 -19 15 -1 30 -5 33 -11 3 -5 19 -10 34 -10 16 0 34 -7 41 -15 7 -8 23 -15 36 -15 12 0 26 -4 29 -10 3 -5 26 -10 51 -10 24 0 44 -4 44 -10 0 -5 25 -10 55 -10 30 0 55 -4 55 -10 0 -7 1487 -10 4440 -10 2953 0 4440 3 4440 10 0 6 25 10 55 10 30 0 55 5 55 10 0 6 20 10 44 10 25 0 48 5 51 10 3 6 17 10 29 10 13 0 29 7 36 15 7 8 25 15 41 15 15 0 31 5 34 10 3 6 18 10 33 11 15 0 41 9 57 19 30 19 66 37 130 65 19 9 37 20 40 25 3 6 15 10 26 10 10 0 19 5 19 10 0 6 8 10 18 10 10 0 29 11 42 25 13 14 29 25 35 25 6 0 26 16 45 35 19 19 39 35 46 35 7 0 39 27 72 60 34 33 67 60 74 60 17 0 88 71 88 89 0 7 27 39 60 73 33 33 60 65 60 72 0 7 16 27 35 46 19 19 35 39 35 45 0 6 11 22 25 35 14 13 25 32 25 42 0 10 5 18 10 18 6 0 10 6 10 13 0 18 28 75 41 82 5 4 9 15 9 26 0 10 5 19 10 19 6 0 10 7 10 15 0 9 11 33 25 55 14 22 25 51 25 64 0 14 5 28 10 31 6 3 10 19 10 34 0 16 7 34 16 42 8 7 13 21 11 30 -3 10 1 23 9 30 8 7 14 30 14 55 0 24 5 44 10 44 6 0 10 25 10 55 0 30 5 55 10 55 7 0 10 1487 10 4440 0 2953 -3 4440 -10 4440 -5 0 -10 25 -10 55 0 30 -4 55 -10 55 -5 0 -10 20 -10 44 0 25 -6 48 -14 55 -8 7 -12 20 -9 30 2 9 -3 23 -11 30 -9 8 -16 26 -16 42 0 15 -4 31 -10 34 -6 3 -10 17 -10 31 0 13 -11 42 -25 64 -14 22 -25 46 -25 55 0 8 -4 15 -10 15 -5 0 -10 9 -10 19 0 11 -4 22 -9 26 -13 7 -41 64 -41 82 0 7 -4 13 -10 13 -5 0 -10 8 -10 18 0 10 -11 29 -25 42 -14 13 -25 29 -25 35 0 6 -16 26 -35 45 -19 19 -35 39 -35 46 0 7 -27 39 -60 72 -33 34 -60 67 -60 74 0 17 -71 88 -89 88 -7 0 -39 27 -73 60 -33 33 -65 60 -72 60 -7 0 -27 16 -46 35 -19 19 -39 35 -45 35 -6 0 -22 11 -35 25 -13 14 -32 25 -42 25 -10 0 -18 5 -18 10 0 6 -9 10 -19 10 -11 0 -23 4 -26 10 -3 5 -21 16 -40 25 -64 28 -100 46 -130 65 -16 10 -42 19 -57 19 -15 1 -30 6 -33 11 -3 6 -19 10 -34 10 -16 0 -34 7 -41 15 -7 8 -23 15 -36 15 -12 0 -26 5 -29 10 -3 6 -26 10 -51 10 -24 0 -44 5 -44 10 0 6 -25 10 -55 10 -30 0 -55 5 -55 10 0 7 -1487 10 -4440 10 -2953 0 -4440 -3 -4440 -10z m6375 -2246 c177 -31 258 -60 368 -132 122 -79 220 -224 267 -392 49 -179 50 -196 50 -1696 0 -1445 -1 -1496 -40 -1669 -42 -188 -164 -362 -316 -451 -55 -32 -187 -80 -246 -88 -25 -4 -51 -13 -57 -19 -6 -8 -11 -229 -14 -622 -4 -625 -5 -636 -47 -860 -49 -256 -171 -558 -309 -763 -273 -406 -683 -674 -1186 -776 -44 -9 -111 -23 -150 -32 -54 -11 -117 -14 -275 -12 -185 4 -219 7 -350 36 -243 53 -326 80 -505 167 -308 149 -532 345 -722 630 -130 194 -240 462 -293 710 -51 243 -53 265 -57 907 -3 450 -7 609 -16 616 -7 6 -38 15 -69 21 -167 30 -343 140 -429 267 -80 118 -118 231 -144 434 -22 171 -22 2829 0 3000 22 170 42 245 91 343 109 216 262 321 554 377 90 17 197 18 1950 19 1645 1 1865 -1 1945 -15z"/>
<path d="M4185 9163 c-70 -16 -132 -72 -156 -140 -20 -55 -21 -2936 -1 -3001 17 -56 78 -117 134 -134 35 -10 393 -13 1843 -13 1697 0 1803 1 1846 18 54 20 91 57 116 112 17 38 18 118 21 1485 2 1064 0 1459 -8 1499 -16 74 -45 117 -99 149 l-46 27 -1815 1 c-998 1 -1824 0 -1835 -3z"/>
<path d="M4680 5278 c0 -7 -1 -279 0 -603 0 -602 3 -659 41 -815 117 -475 414 -812 845 -958 257 -87 611 -87 868 0 424 143 730 485 840 938 48 193 48 198 53 838 l5 612 -1326 0 c-1054 0 -1326 -3 -1326 -12z"/>
</g>


</svg>